<?xml version="1.0" standalone="no"?><!DOCTYPE svg PUBLIC "-//W3C//DTD SVG 1.1//EN" "http://www.w3.org/Graphics/SVG/1.1/DTD/svg11.dtd"><svg t="1727536602181" class="icon" viewBox="0 0 1024 1024" version="1.1" xmlns="http://www.w3.org/2000/svg" p-id="2587" xmlns:xlink="http://www.w3.org/1999/xlink" width="200" height="200"><path d="M819.2 179.2c97.28 87.04 148.48 209.92 148.48 337.92 0 250.88-199.68 455.68-450.56 455.68H512c-250.88 0-455.68-204.8-455.68-455.68V512c0-128 56.32-250.88 148.48-332.8 20.48-10.24 51.2-15.36 76.8 5.12 30.72 25.6 30.72 56.32 10.24 76.8-66.56 66.56-112.64 153.6-112.64 256 0 184.32 148.48 332.8 332.8 332.8s332.8-148.48 332.8-332.8c0-97.28-46.08-189.44-117.76-250.88-10.24-10.24-15.36-46.08 10.24-76.8 35.84-35.84 71.68-15.36 81.92-10.24zM455.68 112.64c0-30.72 30.72-61.44 61.44-61.44s61.44 30.72 61.44 61.44v250.88c0 30.72-30.72 61.44-61.44 61.44s-61.44-30.72-61.44-61.44V112.64z" fill="#D3363A" p-id="2588"></path></svg>